<svg width="64" height="72" viewBox="0 0 64 72" fill="none" xmlns="http://www.w3.org/2000/svg">
<g filter="url(#filter0_d_4787_10770)">
<path d="M34 62.8453C32.7624 63.5598 31.2376 63.5598 30 62.8453L6.28718 49.1547C5.04957 48.4402 4.28718 47.1197 4.28718 45.6906L4.28718 18.3094C4.28718 16.8803 5.04958 15.5598 6.28718 14.8453L30 1.15469C31.2376 0.440164 32.7624 0.440168 34 1.1547L57.7128 14.8453C58.9504 15.5598 59.7128 16.8803 59.7128 18.3094L59.7128 45.6906C59.7128 47.1197 58.9504 48.4402 57.7128 49.1547L34 62.8453Z" fill="url(#paint0_linear_4787_10770)"/>
<path d="M33.625 62.1958C32.6194 62.7763 31.3806 62.7763 30.375 62.1958L6.66218 48.5052C5.65663 47.9246 5.03718 46.8517 5.03718 45.6906L5.03718 18.3094C5.03718 17.1483 5.65663 16.0754 6.66218 15.4948L30.375 1.80422C31.3806 1.22366 32.6194 1.22366 33.625 1.80422L57.3378 15.4948C58.3434 16.0754 58.9628 17.1483 58.9628 18.3094L58.9628 45.6906C58.9628 46.8517 58.3434 47.9246 57.3378 48.5052L33.625 62.1958Z" stroke="white" stroke-width="1.5"/>
</g>
<path d="M41.9114 25.4697L41.5924 25.7868L41.8741 26.1374C43.5145 28.1796 44.5 30.763 44.5 33.5714C44.5 40.157 39.1699 45.5 32.5 45.5C29.3165 45.5 26.2639 44.2425 24.0137 42.0052C21.7636 39.7679 20.5 36.7342 20.5 33.5714C20.5 30.4087 21.7636 27.3749 24.0137 25.1377C26.2639 22.9003 29.3165 21.6429 32.5 21.6429C35.3261 21.6429 37.9244 22.623 39.9913 24.2936L40.3425 24.5775L40.6606 24.2569L42.3008 22.6031C42.7354 22.9971 43.1425 23.4068 43.5456 23.8448L41.9114 25.4697ZM25.2728 40.7614C27.1901 42.6677 29.7898 43.7381 32.5 43.7381C35.2102 43.7381 37.8099 42.6677 39.7272 40.7614C41.6445 38.855 42.7222 36.2687 42.7222 33.5714C42.7222 30.8741 41.6445 28.2879 39.7272 26.3815C37.8099 24.4752 35.2102 23.4048 32.5 23.4048C29.7898 23.4048 27.1901 24.4752 25.2728 26.3815C23.3555 28.2879 22.2778 30.8741 22.2778 33.5714C22.2778 36.2687 23.3555 38.855 25.2728 40.7614ZM33.3889 27.1667V34.4524H31.6111V27.1667H33.3889ZM28.8333 17.5H36.1667V19.2619H28.8333V17.5Z" fill="white" stroke="url(#paint1_linear_4787_10770)"/>
<defs>
<filter id="filter0_d_4787_10770" x="0.287231" y="0.618896" width="63.4255" height="70.7622" filterUnits="userSpaceOnUse" color-interpolation-filters="sRGB">
<feFlood flood-opacity="0" result="BackgroundImageFix"/>
<feColorMatrix in="SourceAlpha" type="matrix" values="0 0 0 0 0 0 0 0 0 0 0 0 0 0 0 0 0 0 127 0" result="hardAlpha"/>
<feOffset dy="4"/>
<feGaussianBlur stdDeviation="2"/>
<feColorMatrix type="matrix" values="0 0 0 0 0 0 0 0 0 0 0 0 0 0 0 0 0 0 0.2 0"/>
<feBlend mode="normal" in2="BackgroundImageFix" result="effect1_dropShadow_4787_10770"/>
<feBlend mode="normal" in="SourceGraphic" in2="effect1_dropShadow_4787_10770" result="shape"/>
</filter>
<linearGradient id="paint0_linear_4787_10770" x1="32" y1="64" x2="32" y2="-2.79753e-06" gradientUnits="userSpaceOnUse">
<stop stop-color="#FC4C02"/>
<stop offset="1" stop-color="#FC4C02" stop-opacity="0"/>
</linearGradient>
<linearGradient id="paint1_linear_4787_10770" x1="23.9796" y1="20.3785" x2="42.8629" y2="40.5401" gradientUnits="userSpaceOnUse">
<stop stop-color="white" stop-opacity="0.25"/>
<stop offset="1" stop-color="white" stop-opacity="0"/>
</linearGradient>
</defs>
</svg>
