<svg width="64" height="72" viewBox="0 0 64 72" fill="none" xmlns="http://www.w3.org/2000/svg">
<g filter="url(#filter0_d_4787_10776)">
<path d="M34 62.8453C32.7624 63.5598 31.2376 63.5598 30 62.8453L6.28718 49.1547C5.04957 48.4402 4.28718 47.1197 4.28718 45.6906L4.28718 18.3094C4.28718 16.8803 5.04958 15.5598 6.28718 14.8453L30 1.15469C31.2376 0.440164 32.7624 0.440168 34 1.1547L57.7128 14.8453C58.9504 15.5598 59.7128 16.8803 59.7128 18.3094L59.7128 45.6906C59.7128 47.1197 58.9504 48.4402 57.7128 49.1547L34 62.8453Z" fill="url(#paint0_linear_4787_10776)"/>
<path d="M33.625 62.1958C32.6194 62.7763 31.3806 62.7763 30.375 62.1958L6.66218 48.5052C5.65663 47.9246 5.03718 46.8517 5.03718 45.6906L5.03718 18.3094C5.03718 17.1483 5.65663 16.0754 6.66218 15.4948L30.375 1.80422C31.3806 1.22366 32.6194 1.22366 33.625 1.80422L57.3378 15.4948C58.3434 16.0754 58.9628 17.1483 58.9628 18.3094L58.9628 45.6906C58.9628 46.8517 58.3434 47.9246 57.3378 48.5052L33.625 62.1958Z" stroke="white" stroke-width="1.5"/>
</g>
<path d="M36.6796 28.1326L36.6796 28.1325L36.6777 28.1283C36.6031 27.957 36.5953 27.8308 36.615 27.7337C36.6348 27.636 36.6924 27.5193 36.8314 27.3847L36.8315 27.3847L36.8373 27.3789L39.4427 24.7735L39.8102 24.406L39.4288 24.053C37.4739 22.2434 35.1564 21.3333 32.5 21.3333C31.1241 21.3333 29.8077 21.6017 28.5553 22.1384C27.3106 22.6719 26.2277 23.396 25.3118 24.3118C24.396 25.2277 23.6719 26.3106 23.1384 27.5553C22.6017 28.8077 22.3333 30.1241 22.3333 31.5C22.3333 32.8759 22.6017 34.1923 23.1384 35.4447C23.6719 36.6894 24.396 37.7723 25.3118 38.6882C26.2277 39.604 27.3106 40.3281 28.5553 40.8616C29.8077 41.3983 31.1241 41.6667 32.5 41.6667C34.0735 41.6667 35.565 41.3222 36.9683 40.6338C38.3726 39.9449 39.5591 38.97 40.5241 37.7142L40.5308 37.7053L40.5333 37.7019C40.5333 37.7019 40.5334 37.7018 40.5335 37.7018C40.5402 37.6983 40.5579 37.6905 40.5921 37.684C40.6445 37.688 40.6724 37.7025 40.6921 37.7183L43.2656 40.3106L43.2766 40.3217L43.2883 40.332C43.2932 40.3364 43.2954 40.3391 43.296 40.34L43.2966 40.3408L43.2966 40.3408L43.2969 40.3417L43.2979 40.3451C43.2986 40.3485 43.2998 40.355 43.3002 40.3654C43.3015 40.3985 43.2955 40.4224 43.2696 40.4555C41.9454 42.058 40.3443 43.2978 38.462 44.1783C36.5777 45.0596 34.5921 45.5 32.5 45.5C30.6037 45.5 28.7954 45.1297 27.071 44.3889C25.3384 43.6446 23.8505 42.6473 22.6016 41.3984C21.3527 40.1495 20.3554 38.6616 19.6111 36.929C18.8703 35.2046 18.5 33.3963 18.5 31.5C18.5 29.6037 18.8703 27.7954 19.6111 26.071C20.3554 24.3384 21.3527 22.8505 22.6016 21.6016C23.8505 20.3527 25.3384 19.3554 27.071 18.6111C28.7954 17.8703 30.6037 17.5 32.5 17.5C34.2856 17.5 36.0125 17.8367 37.6843 18.5115C39.3576 19.1869 40.8433 20.1381 42.1444 21.3662L42.4963 21.6984L42.8398 21.3575L45.2942 18.922L45.3008 18.9154L45.3072 18.9086C45.4322 18.775 45.5446 18.7186 45.6443 18.6986C45.7453 18.6784 45.8813 18.6862 46.068 18.7629C46.2405 18.8388 46.3398 18.9282 46.3988 19.0174C46.458 19.1069 46.5 19.2317 46.5 19.4167V27.875C46.5 28.0648 46.4366 28.2222 46.2877 28.3711C46.1388 28.5199 45.9814 28.5833 45.7917 28.5833H37.3333C37.1508 28.5833 37.0279 28.541 36.9389 28.4807C36.8488 28.4196 36.7572 28.3153 36.6796 28.1326Z" fill="white" stroke="url(#paint1_linear_4787_10776)"/>
<defs>
<filter id="filter0_d_4787_10776" x="0.287109" y="0.618896" width="63.4258" height="70.7622" filterUnits="userSpaceOnUse" color-interpolation-filters="sRGB">
<feFlood flood-opacity="0" result="BackgroundImageFix"/>
<feColorMatrix in="SourceAlpha" type="matrix" values="0 0 0 0 0 0 0 0 0 0 0 0 0 0 0 0 0 0 127 0" result="hardAlpha"/>
<feOffset dy="4"/>
<feGaussianBlur stdDeviation="2"/>
<feColorMatrix type="matrix" values="0 0 0 0 0 0 0 0 0 0 0 0 0 0 0 0 0 0 0.2 0"/>
<feBlend mode="normal" in2="BackgroundImageFix" result="effect1_dropShadow_4787_10776"/>
<feBlend mode="normal" in="SourceGraphic" in2="effect1_dropShadow_4787_10776" result="shape"/>
</filter>
<linearGradient id="paint0_linear_4787_10776" x1="32" y1="64" x2="32" y2="-2.79753e-06" gradientUnits="userSpaceOnUse">
<stop stop-color="#FC4C02"/>
<stop offset="1" stop-color="#FC4C02" stop-opacity="0"/>
</linearGradient>
<linearGradient id="paint1_linear_4787_10776" x1="22.6163" y1="20.3785" x2="41.1152" y2="43.2899" gradientUnits="userSpaceOnUse">
<stop stop-color="white" stop-opacity="0.25"/>
<stop offset="1" stop-color="white" stop-opacity="0"/>
</linearGradient>
</defs>
</svg>
