<svg width="64" height="72" viewBox="0 0 64 72" fill="none" xmlns="http://www.w3.org/2000/svg">
<g filter="url(#filter0_d_4787_10782)">
<path d="M34 62.8453C32.7624 63.5598 31.2376 63.5598 30 62.8453L6.28718 49.1547C5.04957 48.4402 4.28718 47.1197 4.28718 45.6906L4.28718 18.3094C4.28718 16.8803 5.04958 15.5598 6.28718 14.8453L30 1.15469C31.2376 0.440164 32.7624 0.440168 34 1.1547L57.7128 14.8453C58.9504 15.5598 59.7128 16.8803 59.7128 18.3094L59.7128 45.6906C59.7128 47.1197 58.9504 48.4402 57.7128 49.1547L34 62.8453Z" fill="url(#paint0_linear_4787_10782)"/>
<path d="M33.625 62.1958C32.6194 62.7763 31.3806 62.7763 30.375 62.1958L6.66218 48.5052C5.65663 47.9246 5.03718 46.8517 5.03718 45.6906L5.03718 18.3094C5.03718 17.1483 5.65663 16.0754 6.66218 15.4948L30.375 1.80422C31.3806 1.22366 32.6194 1.22366 33.625 1.80422L57.3378 15.4948C58.3434 16.0754 58.9628 17.1483 58.9628 18.3094L58.9628 45.6906C58.9628 46.8517 58.3434 47.9246 57.3378 48.5052L33.625 62.1958Z" stroke="white" stroke-width="1.5"/>
</g>
<path d="M46.8261 40.4719L46.826 40.4718L46.8157 40.4775L32.7713 48.2475L32.7427 48.2633L32.7164 48.2827C32.529 48.4211 32.2811 48.5 32 48.5C31.7189 48.5 31.471 48.4211 31.2836 48.2827L31.2573 48.2633L31.2287 48.2475L17.1843 40.4775L17.1844 40.4773L17.172 40.4709C16.9673 40.365 16.7971 40.2066 16.6791 40.0136C16.5611 39.8207 16.4994 39.6004 16.5 39.3764V39.375V23.625C16.5 23.1549 16.762 22.7435 17.1739 22.5281L17.174 22.5282L17.1843 22.5225L31.2287 14.7525L31.2573 14.7367L31.2836 14.7173C31.471 14.5789 31.7189 14.5 32 14.5C32.2811 14.5 32.529 14.5789 32.7164 14.7173L32.7427 14.7367L32.7713 14.7525L46.8157 22.5225L46.8157 22.5226L46.8261 22.5281C47.238 22.7435 47.5 23.1549 47.5 23.625V39.375C47.5 39.8451 47.238 40.2565 46.8261 40.4719ZM19.5556 25.75H19.0556V26.25V36.75V37.25H19.5556H21.7778H22.2778V36.75V33.75H23.1111C24.1842 33.75 25.2149 33.3305 25.976 32.5812C26.7374 31.8317 27.1667 30.8134 27.1667 29.75C27.1667 28.6866 26.7374 27.6683 25.976 26.9188C25.2149 26.1695 24.1842 25.75 23.1111 25.75H19.5556ZM28 25.75H27.5V26.25V36.75V37.25H28H30.2222H30.7222V36.75V33.75H31.1958L32.2548 36.9089L32.3692 37.25H32.7289H35.0756H35.7709L35.5495 36.5908L34.2563 32.7395C35.0854 32.0114 35.6111 30.9377 35.6111 29.75C35.6111 28.6866 35.1819 27.6683 34.4205 26.9188C33.6593 26.1695 32.6286 25.75 31.5556 25.75H28ZM22.2778 31V28.5H22.6667C23.0081 28.5 23.3339 28.6336 23.573 28.8689C23.8118 29.1039 23.9444 29.421 23.9444 29.75C23.9444 30.079 23.8118 30.3961 23.573 30.6311C23.3339 30.8664 23.0081 31 22.6667 31H22.2778ZM30.7222 28.5H31.1111C31.4525 28.5 31.7784 28.6336 32.0174 28.8689C32.2562 29.1039 32.3889 29.421 32.3889 29.75C32.3889 30.079 32.2562 30.3961 32.0174 30.6311C31.7784 30.8664 31.4525 31 31.1111 31H30.7222V28.5ZM40.8889 25.75C38.085 25.75 35.9444 28.3997 35.9444 31.5C35.9444 34.6003 38.085 37.25 40.8889 37.25C43.6928 37.25 45.8333 34.6003 45.8333 31.5C45.8333 28.3997 43.6928 25.75 40.8889 25.75ZM40.8889 28.9375C41.8671 28.9375 42.8422 29.9707 42.8422 31.5C42.8422 33.0293 41.8671 34.0625 40.8889 34.0625C39.9148 34.0625 38.9533 33.0344 38.9533 31.5C38.9533 29.9656 39.9148 28.9375 40.8889 28.9375Z" fill="white" stroke="url(#paint1_linear_4787_10782)"/>
<defs>
<filter id="filter0_d_4787_10782" x="0.287231" y="0.618896" width="63.4255" height="70.7622" filterUnits="userSpaceOnUse" color-interpolation-filters="sRGB">
<feFlood flood-opacity="0" result="BackgroundImageFix"/>
<feColorMatrix in="SourceAlpha" type="matrix" values="0 0 0 0 0 0 0 0 0 0 0 0 0 0 0 0 0 0 127 0" result="hardAlpha"/>
<feOffset dy="4"/>
<feGaussianBlur stdDeviation="2"/>
<feColorMatrix type="matrix" values="0 0 0 0 0 0 0 0 0 0 0 0 0 0 0 0 0 0 0.2 0"/>
<feBlend mode="normal" in2="BackgroundImageFix" result="effect1_dropShadow_4787_10782"/>
<feBlend mode="normal" in="SourceGraphic" in2="effect1_dropShadow_4787_10782" result="shape"/>
</filter>
<linearGradient id="paint0_linear_4787_10782" x1="32" y1="64" x2="32" y2="-2.79753e-06" gradientUnits="userSpaceOnUse">
<stop stop-color="#FC4C02"/>
<stop offset="1" stop-color="#FC4C02" stop-opacity="0"/>
</linearGradient>
<linearGradient id="paint1_linear_4787_10782" x1="21.0939" y1="18.0775" x2="43.7576" y2="43.7412" gradientUnits="userSpaceOnUse">
<stop stop-color="white" stop-opacity="0.25"/>
<stop offset="1" stop-color="white" stop-opacity="0"/>
</linearGradient>
</defs>
</svg>
