<svg width="64" height="72" viewBox="0 0 64 72" fill="none" xmlns="http://www.w3.org/2000/svg">
<g filter="url(#filter0_d_4787_10788)">
<path d="M34 62.8453C32.7624 63.5598 31.2376 63.5598 30 62.8453L6.28718 49.1547C5.04957 48.4402 4.28718 47.1197 4.28718 45.6906L4.28718 18.3094C4.28718 16.8803 5.04958 15.5598 6.28718 14.8453L30 1.15469C31.2376 0.440164 32.7624 0.440168 34 1.1547L57.7128 14.8453C58.9504 15.5598 59.7128 16.8803 59.7128 18.3094L59.7128 45.6906C59.7128 47.1197 58.9504 48.4402 57.7128 49.1547L34 62.8453Z" fill="url(#paint0_linear_4787_10788)"/>
<path d="M33.625 62.1958C32.6194 62.7763 31.3806 62.7763 30.375 62.1958L6.66218 48.5052C5.65663 47.9246 5.03718 46.8517 5.03718 45.6906L5.03718 18.3094C5.03718 17.1483 5.65663 16.0754 6.66218 15.4948L30.375 1.80422C31.3806 1.22366 32.6194 1.22366 33.625 1.80422L57.3378 15.4948C58.3434 16.0754 58.9628 17.1483 58.9628 18.3094L58.9628 45.6906C58.9628 46.8517 58.3434 47.9246 57.3378 48.5052L33.625 62.1958Z" stroke="white" stroke-width="1.5"/>
</g>
<path d="M23.6299 18.7008H24.0288L24.1174 18.3119C24.4955 16.6524 25.7917 15.5 27.2778 15.5C29.0316 15.5 30.5556 17.125 30.5556 19.25V44.2188C30.5556 46.6426 28.825 48.5 26.8056 48.5C25.1923 48.5 23.7872 47.3145 23.2707 45.5894L23.1398 45.1524L22.6927 45.2427C22.4811 45.2854 22.2804 45.3125 22.0833 45.3125C20.0639 45.3125 18.3333 43.4551 18.3333 41.0312C18.3333 40.7435 18.36 40.4601 18.4086 40.1806L18.4742 39.8033L18.127 39.6416C16.6078 38.9344 15.5 37.2231 15.5 35.1875C15.5 33.3772 16.3824 31.8389 17.6504 31.0186L18.0043 30.7897L17.8385 30.4022C17.5602 29.7515 17.3889 29.0413 17.3889 28.2812C17.3889 26.2401 18.5015 24.5288 20.0324 23.821L20.3963 23.6528L20.3112 23.261C20.2535 22.9958 20.2222 22.7193 20.2222 22.4375C20.2222 20.319 21.7369 18.6974 23.484 18.6875C23.4845 18.6876 23.485 18.6877 23.4856 18.6878C23.4866 18.688 23.4878 18.6882 23.4892 18.6884C23.5101 18.6918 23.5651 18.7008 23.6299 18.7008ZM46.1629 30.399L45.9932 30.7881L46.3496 31.0186C47.6176 31.8389 48.5 33.3772 48.5 35.1875C48.5 37.2231 47.3922 38.9344 45.873 39.6416L45.5258 39.8033L45.5914 40.1806C45.64 40.4601 45.6667 40.7435 45.6667 41.0312C45.6667 43.4551 43.9361 45.3125 41.9167 45.3125C41.7196 45.3125 41.5189 45.2854 41.3073 45.2427L40.8602 45.1524L40.7293 45.5894C40.2128 47.3145 38.8077 48.5 37.1944 48.5C35.175 48.5 33.4444 46.6426 33.4444 44.2188V19.25C33.4444 17.1189 34.9679 15.5 36.7222 15.5C38.2083 15.5 39.5045 16.6524 39.8826 18.3119L39.9712 18.7008H40.3701C40.4067 18.7008 40.4381 18.6979 40.4605 18.6952C40.4797 18.6929 40.4981 18.69 40.5071 18.6886L40.5095 18.6882C40.5112 18.688 40.5127 18.6877 40.5141 18.6875C42.2619 18.6962 43.7778 20.3182 43.7778 22.4375C43.7778 22.7138 43.7419 22.9919 43.6869 23.2703L43.6107 23.656L43.9676 23.821C45.4985 24.5288 46.6111 26.2401 46.6111 28.2812C46.6111 29.0435 46.4447 29.7527 46.1629 30.399Z" fill="white" stroke="url(#paint1_linear_4787_10788)"/>
<defs>
<filter id="filter0_d_4787_10788" x="0.287109" y="0.618896" width="63.4258" height="70.7622" filterUnits="userSpaceOnUse" color-interpolation-filters="sRGB">
<feFlood flood-opacity="0" result="BackgroundImageFix"/>
<feColorMatrix in="SourceAlpha" type="matrix" values="0 0 0 0 0 0 0 0 0 0 0 0 0 0 0 0 0 0 127 0" result="hardAlpha"/>
<feOffset dy="4"/>
<feGaussianBlur stdDeviation="2"/>
<feColorMatrix type="matrix" values="0 0 0 0 0 0 0 0 0 0 0 0 0 0 0 0 0 0 0.2 0"/>
<feBlend mode="normal" in2="BackgroundImageFix" result="effect1_dropShadow_4787_10788"/>
<feBlend mode="normal" in="SourceGraphic" in2="effect1_dropShadow_4787_10788" result="shape"/>
</filter>
<linearGradient id="paint0_linear_4787_10788" x1="32" y1="64" x2="32" y2="-2.79753e-06" gradientUnits="userSpaceOnUse">
<stop stop-color="#FC4C02"/>
<stop offset="1" stop-color="#FC4C02" stop-opacity="0"/>
</linearGradient>
<linearGradient id="paint1_linear_4787_10788" x1="20.4122" y1="18.961" x2="42.1006" y2="45.8226" gradientUnits="userSpaceOnUse">
<stop stop-color="white" stop-opacity="0.25"/>
<stop offset="1" stop-color="white" stop-opacity="0"/>
</linearGradient>
</defs>
</svg>
